<svg width="25" height="24" viewBox="0 0 25 24" fill="none" xmlns="http://www.w3.org/2000/svg">
<path d="M16.1555 4.00001L14.6525 5.50001H5.4165L5.2725 5.50601C4.8348 5.54215 4.42669 5.74155 4.12918 6.06462C3.83167 6.38769 3.66652 6.81082 3.6665 7.25001V9.49001L6.2765 7.85001C6.75718 7.54784 7.33432 7.43856 7.89219 7.54409C8.45006 7.64961 8.94741 7.96215 9.2845 8.41901L9.3795 8.55801C9.57293 8.86603 9.6888 9.21635 9.71719 9.57895C9.74558 9.94156 9.68564 10.3056 9.5425 10.64L9.4635 10.806L8.2555 13.092C8.1842 13.227 8.15582 13.3806 8.17414 13.5322C8.19247 13.6838 8.25664 13.8262 8.35808 13.9404C8.45951 14.0545 8.59337 14.135 8.74177 14.171C8.89016 14.2071 9.04602 14.1969 9.1885 14.142L9.2865 14.096L11.0465 13.103C11.2116 13.0107 11.4055 12.9842 11.5893 13.0288C11.7731 13.0734 11.9333 13.1858 12.0378 13.3435C12.1422 13.5012 12.1832 13.6925 12.1526 13.8792C12.1219 14.0658 12.0219 14.234 11.8725 14.35L11.7875 14.407L10.0225 15.403C9.61099 15.6346 9.13704 15.7309 8.66778 15.6782C8.19852 15.6255 7.75774 15.4265 7.40786 15.1093C7.05799 14.7922 6.81676 14.373 6.71834 13.9112C6.61993 13.4493 6.66931 12.9682 6.8595 12.536L6.9295 12.391L8.1375 10.105C8.21006 9.96745 8.23805 9.81074 8.21761 9.65657C8.19717 9.5024 8.12932 9.35839 8.02343 9.24449C7.91754 9.13058 7.77886 9.05241 7.62659 9.02079C7.47432 8.98918 7.31598 9.00568 7.1735 9.06801L7.0755 9.12001L3.6665 11.262V16.755C3.6665 17.721 4.4505 18.505 5.4165 18.505H18.9165C19.3806 18.505 19.8258 18.3206 20.1539 17.9924C20.4821 17.6643 20.6665 17.2191 20.6665 16.755V9.44301L22.1665 7.94601V16.755C22.1665 17.1818 22.0824 17.6044 21.9191 17.9987C21.7558 18.393 21.5164 18.7513 21.2146 19.0531C20.9128 19.3549 20.5545 19.5943 20.1602 19.7576C19.7659 19.9209 19.3433 20.005 18.9165 20.005H5.4165C4.55455 20.005 3.7279 19.6626 3.11841 19.0531C2.50891 18.4436 2.1665 17.617 2.1665 16.755V7.25001C2.16645 6.41987 2.48406 5.62118 3.05418 5.01778C3.62429 4.41438 4.4037 4.05201 5.2325 4.00501L5.4165 4.00001H16.1555ZM21.3415 3.54501L21.4715 3.66501L21.5925 3.79501C21.9639 4.2293 22.1577 4.78773 22.1353 5.35871C22.1128 5.92969 21.8758 6.47119 21.4715 6.87501L17.1905 11.148C16.9274 11.4103 16.6034 11.6034 16.2475 11.71L13.9205 12.41C13.7458 12.4626 13.56 12.4665 13.3833 12.4211C13.2066 12.3757 13.0456 12.2828 12.9179 12.1525C12.7902 12.0222 12.7006 11.8595 12.6587 11.6819C12.6169 11.5043 12.6244 11.3186 12.6805 11.145L13.4195 8.85001C13.5295 8.51001 13.7185 8.20001 13.9715 7.94701L18.2615 3.66401C18.6656 3.26007 19.2071 3.02336 19.778 3.00111C20.3489 2.97887 20.9072 3.17273 21.3415 3.54401V3.54501ZM19.3215 4.72501L15.0315 9.00901C14.9473 9.09303 14.8842 9.19585 14.8475 9.30901L14.4005 10.699L15.8165 10.274C15.9351 10.2382 16.0429 10.1736 16.1305 10.086L20.4105 5.81301L20.4855 5.72701C20.604 5.57113 20.6585 5.37592 20.638 5.18119C20.6175 4.98647 20.5235 4.8069 20.3752 4.6791C20.2269 4.55129 20.0354 4.48489 19.8398 4.49342C19.6441 4.50195 19.4592 4.58478 19.3225 4.72501H19.3215Z" fill="#888888"/>
</svg>
